<svg id="Layer_1" data-name="Layer 1" xmlns="http://www.w3.org/2000/svg" viewBox="0 0 1000 117.71"><defs><style>.cls-1{fill:#142d4f;}.cls-2{fill:#ee3224;}.cls-3{fill:#142d50;}</style></defs><title>Logo Tech Talks</title><path class="cls-1" d="M481.53,469.1H453.91l-12.55,79.56H424.57l12.69-79.56H409.64l2.24-14h71.77Z" transform="translate(0 -432.8)"/><path class="cls-1" d="M486.82,522.36q.66,15.07,16,15.07a31.93,31.93,0,0,0,9.38-1.26,42.29,42.29,0,0,0,8.86-4l5.68,10.31a52.52,52.52,0,0,1-12.62,6.21A47,47,0,0,1,500,550.51q-13.76,0-21.35-7.6t-7.6-20.81a51.09,51.09,0,0,1,4.76-22.27,36.77,36.77,0,0,1,34.49-21.48q13.1,0,18.77,5.49a17.91,17.91,0,0,1,5.68,13.41q0,13.08-13,18.7T486.82,522.36Zm31.85-25a6.73,6.73,0,0,0-2-5.28c-1.37-1.24-3.81-1.85-7.33-1.85q-8.6,0-14,5.48t-7.4,14.74a141.52,141.52,0,0,0,17.38-1.92c4.36-.83,7.68-2.14,10-3.9A8.66,8.66,0,0,0,518.67,497.38Z" transform="translate(0 -432.8)"/><path class="cls-1" d="M542.72,521.7a49.22,49.22,0,0,1,4.89-22.07,37.54,37.54,0,0,1,14-15.6,39,39,0,0,1,21-5.68q12.82,0,22,7.27l-7.14,10.71q-6.48-4.89-16-4.89a19.51,19.51,0,0,0-12.36,4A24.27,24.27,0,0,0,561.42,506a40.06,40.06,0,0,0-2.57,14.67q0,7.67,3.7,12.1t11.23,4.42q8.19,0,17.45-5.15l5.15,11.1a43.78,43.78,0,0,1-25.11,7.4q-15.19,0-21.87-8.32T542.72,521.7Z" transform="translate(0 -432.8)"/><path class="cls-1" d="M624.14,455.09H640l-6.22,35.68h.27q2.9-4.87,10-8.65a29.57,29.57,0,0,1,14-3.77q10.31,0,15.66,5.88A21.09,21.09,0,0,1,679,499a28.43,28.43,0,0,1-.39,4.62l-7.27,45.07H655.46l6.74-42a34.43,34.43,0,0,0,.4-5q0-10.17-9.12-10.17-6.22,0-11.44,5.28a42.6,42.6,0,0,0-8.72,13.61,75.91,75.91,0,0,0-5,17.45l-3.3,20.88H609.33Z" transform="translate(0 -432.8)"/><path class="cls-1" d="M765.94,469.1H738.32l-12.55,79.56H709l12.69-79.56H694.05l2.24-14h71.77Z" transform="translate(0 -432.8)"/><path class="cls-1" d="M825.29,486.94l-7.41,46.13a141.13,141.13,0,0,0-1.32,15.59H801.89a45.14,45.14,0,0,1,.66-9.91h-.26a27.06,27.06,0,0,1-10,9,30.11,30.11,0,0,1-13.34,2.71q-11.5,0-17.58-7.53t-6.08-20a51,51,0,0,1,5-22.6,39.48,39.48,0,0,1,14.08-16.12,37.57,37.57,0,0,1,21-5.95,59.09,59.09,0,0,1,15.86,1.92A51.2,51.2,0,0,1,825.29,486.94Zm-19.57,22.47,2.52-15.73a20.75,20.75,0,0,0-6-2.11,38.54,38.54,0,0,0-6.67-.53,20.66,20.66,0,0,0-12.95,4.16,25.09,25.09,0,0,0-8.13,11.17,41.71,41.71,0,0,0-2.71,15.2q0,7.93,3.24,12.16a10.61,10.61,0,0,0,8.92,4.23q7.94,0,13.94-8.2T805.72,509.41Z" transform="translate(0 -432.8)"/><path class="cls-1" d="M866,455.09l-14.8,93.57H835.33l14.8-93.57Z" transform="translate(0 -432.8)"/><path class="cls-1" d="M910.26,508.22l25.11,40.44h-18.1l-18.51-30.79-7.4,6.08-4,24.71H871.54l14.8-93.57H902.2l-7.93,50.22L924,480.2h20.08Z" transform="translate(0 -432.8)"/><path class="cls-1" d="M1000,485.49l-7.4,9.91a29.11,29.11,0,0,0-15.86-4.89q-12.42,0-12.42,8.2a5.89,5.89,0,0,0,2.77,5.08q2.77,1.92,10.31,4,16.79,5.15,16.79,18.63,0,11.76-8.33,17.91t-21.81,6.14q-14.53,0-24.58-7.66l7.4-10.05a31,31,0,0,0,17.71,5.42q13.08,0,13.08-9.51a6.9,6.9,0,0,0-2.7-5.62q-2.72-2.18-9.72-4.43-17-5.16-17-18.24,0-10.56,8-16.32t20.68-5.75Q990.63,478.35,1000,485.49Z" transform="translate(0 -432.8)"/><path class="cls-2" d="M318,474.34a26.43,26.43,0,0,0-1-7.8c-2.55-7.84-10.64-11.66-19.16-11.66h-46.5L236,545.22h19.45l13.43-79.09h14.44c7.66,0,11,1.89,13,5.38a14.67,14.67,0,0,1,1.49,6.71,22.08,22.08,0,0,1-1,6.91,16.33,16.33,0,0,1-3.33,5.76,17,17,0,0,1-4.72,3.83c-.73.4-4.33,2-10.62,2H270L268.08,508l17.45,37.22h20.62L288.7,508A33.73,33.73,0,0,0,318,474.34Z" transform="translate(0 -432.8)"/><polygon class="cls-2" points="235.44 22.09 206.03 75.21 191 22.09 170.38 22.09 196.21 113.39 246.76 22.09 235.44 22.09"/><path class="cls-2" d="M376.3,454.88H329.8l-15.34,90.34h19.45l13.43-79.09h14.44c7.66,0,11,1.89,13,5.38a14.7,14.7,0,0,1,1.49,6.71q0,.66,0,1.26a22,22,0,0,1-1,5.65,16.33,16.33,0,0,1-3.33,5.76,17.1,17.1,0,0,1-4.72,3.83c-.74.4-4.33,2-10.62,2h-8.09L346.4,509h12.73a42.87,42.87,0,0,0,14.2-2.15,27.3,27.3,0,0,0,4.83-2.21,37.25,37.25,0,0,0,5.62-3.64,33.92,33.92,0,0,0,12.71-26.63,26.43,26.43,0,0,0-1-7.8C392.92,458.7,384.83,454.88,376.3,454.88Z" transform="translate(0 -432.8)"/><path class="cls-1" d="M90.49,546.61H38.92V542H90.49A53.82,53.82,0,0,0,129,526.09a51.39,51.39,0,0,0,15.11-36.78c-.22-28.42-23.85-51.72-52.68-51.93a53.15,53.15,0,0,0-37.86,15.43A52.34,52.34,0,0,0,37.9,490.19v23.48H33.32V490.19A57.62,57.62,0,0,1,91,432.8h.44c31.31.24,57,25.57,57.22,56.47a56,56,0,0,1-16.44,40A58.34,58.34,0,0,1,90.49,546.61Z" transform="translate(0 -432.8)"/><path class="cls-1" d="M67.65,507.94A24.33,24.33,0,1,1,92,483.61,24.35,24.35,0,0,1,67.65,507.94Zm0-44.07A19.75,19.75,0,1,0,87.4,483.61,19.76,19.76,0,0,0,67.65,463.87Z" transform="translate(0 -432.8)"/><circle class="cls-3" cx="67.65" cy="50.81" r="12.24"/><path class="cls-1" d="M114.78,506.66a24.33,24.33,0,1,1,24.33-24.32A24.35,24.35,0,0,1,114.78,506.66Zm0-44.07a19.75,19.75,0,1,0,19.75,19.75A19.77,19.77,0,0,0,114.78,462.59Z" transform="translate(0 -432.8)"/><circle class="cls-3" cx="114.78" cy="49.54" r="12.24"/><path class="cls-1" d="M82.61,502.06l3-1.94,6.66,10.43,6.63-10.4,3,2-7.77,12.79H90.53Z" transform="translate(0 -432.8)"/><path class="cls-1" d="M121.23,455.39H102c-2.8,0-4.91.76-6.32,2.26s-2.28,3.77-2.62,6.79H88.42q-1.12-9-9-9.05H60.24q-8.24,0-12.4-4.53a16.07,16.07,0,0,1-4.16-11.31H48a10.44,10.44,0,0,0,3,7.87q3,2.93,8.8,2.93H77.41q6.18,0,9.06,2.36c1.91,1.58,3.29,4.12,4.11,7.62h.2c.9-3.5,2.3-6,4.22-7.62s4.94-2.36,9-2.36h17.59q5.76,0,8.79-2.93a10.41,10.41,0,0,0,3-7.87h4.32A16.08,16.08,0,0,1,133.67,451Q129.56,455.38,121.23,455.39Z" transform="translate(0 -432.8)"/><path class="cls-1" d="M15.89,549.28a55.35,55.35,0,0,1-11.1-1,6,6,0,0,1-2.58-10.49c50.42-41.05,52.09-39.69,54.21-38,4.67,3.81,13.6,3.35,13.69,3.35l.74,0,.62.4c5.13,3.28,13.09,12.46,6.47,23.73-7.68,13.1-40.49,19.76-41.88,20H36A117.22,117.22,0,0,1,15.89,549.28ZM54.31,504c-2.77,1.15-13.06,7.94-49.21,37.38a1.36,1.36,0,0,0-.48,1.41,1.38,1.38,0,0,0,1.1,1.05c4.06.84,13.29,1.82,29.47-1,9-1.78,33.29-8.46,38.8-17.85,5.35-9.11-2.24-15.57-4.44-17.18C67.06,507.84,59.48,507.63,54.31,504Z" transform="translate(0 -432.8)"/><path class="cls-1" d="M120.87,546.59c-13.85,0-27.43-.06-27.43-.06L93.3,542c.24,0,24.25-1.73,36.37-14.38l4.55-4.73-.62,6.52a11.5,11.5,0,0,0,2.64,7.73c2.33,2.65,6.09,4.11,11.2,4.35,3,.15,4.95.24,4.89,2.58,0,1.15-.05,1.78-2.81,2.13v0h-.06c-3.43.42-11,.42-27.71.42Zm-6.4-4.57c7.23,0,14.37,0,20.31,0a14.85,14.85,0,0,1-2-1.93,15,15,0,0,1-3.2-6.18A52.7,52.7,0,0,1,114.47,542Z" transform="translate(0 -432.8)"/></svg>